HIERARCHY
ROOT hips
{
	OFFSET -0.003675 0.299928 -0.021708
	CHANNELS 6 Xposition Yposition Zposition Xrotation Yrotation Zrotation
	JOINT LowerBack
	{
		OFFSET 0.000919 0.177588 0.009275
		CHANNELS 3 Xrotation Yrotation Zrotation
		JOINT spine
		{
			OFFSET 0.000919 0.177588 0.009275
			CHANNELS 3 Xrotation Yrotation Zrotation
			JOINT chest
			{
				OFFSET 0.000456 0.100015 0.004638
				CHANNELS 3 Xrotation Yrotation Zrotation
				JOINT neck
				{
					OFFSET 0.000456 0.100015 0.004638
					CHANNELS 3 Xrotation Yrotation Zrotation
					JOINT head
					{
						OFFSET 0.000924 0.155147 0.009274
						CHANNELS 6 Xposition Yposition Zposition Xrotation Yrotation Zrotation
						End Site
						{
							OFFSET 0.000000 0.153400 0.000000
						}
					}
				}
				JOINT shoulder.L
				{
					OFFSET 0.019937 0.078966 0.057518
					CHANNELS 6 Xposition Yposition Zposition Yrotation Xrotation Zrotation
					JOINT upper_arm.L
					{
						OFFSET 0.177024 -0.020465 -0.095062
						CHANNELS 6 Xposition Yposition Zposition Xrotation Yrotation Zrotation
						JOINT forearm.L
						{
							OFFSET 0.247100 -0.135500 -0.061800
							CHANNELS 3 Xrotation Yrotation Zrotation
							JOINT hand.L
							{
								OFFSET 0.217000 -0.143000 0.039300
								CHANNELS 3 Xrotation Yrotation Zrotation
								JOINT palm.01.L
								{
									OFFSET 0.021770 -0.038291 0.012954
									CHANNELS 6 Xposition Yposition Zposition Yrotation Xrotation Zrotation
									JOINT f_index.01.L
									{
										OFFSET 0.053215 -0.044137 0.008236
										CHANNELS 3 Xrotation Yrotation Zrotation
										JOINT f_index.02.L
										{
											OFFSET 0.036108 -0.024723 -0.010656
											CHANNELS 3 Xrotation Yrotation Zrotation
											JOINT f_index.03.L
											{
												OFFSET 0.021342 -0.014948 -0.010846
												CHANNELS 3 Xrotation Yrotation Zrotation
												End Site
												{
													OFFSET 0.015600 -0.009860 -0.013421
												}
											}
										}
									}
									JOINT thumb.01.L
									{
										OFFSET -0.009090 -0.002348 -0.024223
										CHANNELS 6 Xposition Yposition Zposition Xrotation Yrotation Zrotation
										JOINT thumb.02.L
										{
											OFFSET 0.019713 -0.035076 -0.011120
											CHANNELS 3 Xrotation Yrotation Zrotation
											JOINT thumb.03.L
											{
												OFFSET 0.024877 -0.021748 -0.005176
												CHANNELS 3 Xrotation Yrotation Zrotation
												End Site
												{
													OFFSET 0.016125 -0.013029 -0.001569
												}
											}
										}
									}
								}
								JOINT palm.02.L
								{
									OFFSET 0.032823 -0.025104 0.012281
									CHANNELS 6 Xposition Yposition Zposition Yrotation Xrotation Zrotation
									JOINT f_middle.01.L
									{
										OFFSET 0.055723 -0.038469 0.008037
										CHANNELS 3 Xrotation Yrotation Zrotation
										JOINT f_middle.02.L
										{
											OFFSET 0.038167 -0.027473 -0.015582
											CHANNELS 3 Xrotation Yrotation Zrotation
											JOINT f_middle.03.L
											{
												OFFSET 0.021707 -0.016587 -0.017037
												CHANNELS 3 Xrotation Yrotation Zrotation
												End Site
												{
													OFFSET 0.014112 -0.010584 -0.014294
												}
											}
										}
									}
								}
								JOINT palm.03.L
								{
									OFFSET 0.039230 -0.011402 0.008390
									CHANNELS 6 Xposition Yposition Zposition Yrotation Xrotation Zrotation
									JOINT f_ring.01.L
									{
										OFFSET 0.061796 -0.031470 0.007910
										CHANNELS 3 Xrotation Yrotation Zrotation
										JOINT f_ring.02.L
										{
											OFFSET 0.033092 -0.023401 -0.019127
											CHANNELS 3 Xrotation Yrotation Zrotation
											JOINT f_ring.03.L
											{
												OFFSET 0.021392 -0.015362 -0.017824
												CHANNELS 3 Xrotation Yrotation Zrotation
												End Site
												{
													OFFSET 0.008670 -0.007297 -0.014686
												}
											}
										}
									}
								}
								JOINT palm.04.L
								{
									OFFSET 0.043417 0.002450 0.002889
									CHANNELS 6 Xposition Yposition Zposition Yrotation Xrotation Zrotation
									JOINT f_pinky.01.L
									{
										OFFSET 0.069986 -0.026156 0.003627
										CHANNELS 3 Xrotation Yrotation Zrotation
										JOINT f_pinky.02.L
										{
											OFFSET 0.018520 -0.012813 -0.016429
											CHANNELS 3 Xrotation Yrotation Zrotation
											JOINT f_pinky.03.L
											{
												OFFSET 0.013822 -0.009796 -0.014947
												CHANNELS 3 Xrotation Yrotation Zrotation
												End Site
												{
													OFFSET 0.007238 -0.006103 -0.011657
												}
											}
										}
									}
								}
							}
						}
					}
				}
				JOINT shoulder.R
				{
					OFFSET -0.016662 0.078957 0.057696
					CHANNELS 6 Xposition Yposition Zposition Yrotation Xrotation Zrotation
					JOINT upper_arm.R
					{
						OFFSET -0.176972 -0.020537 -0.095144
						CHANNELS 6 Xposition Yposition Zposition Xrotation Yrotation Zrotation
						JOINT forearm.R
						{
							OFFSET -0.247100 -0.135500 -0.061800
							CHANNELS 3 Xrotation Yrotation Zrotation
							JOINT hand.R
							{
								OFFSET -0.217000 -0.143000 0.039300
								CHANNELS 3 Xrotation Yrotation Zrotation
								JOINT palm.01.R
								{
									OFFSET -0.021773 -0.038278 0.012988
									CHANNELS 6 Xposition Yposition Zposition Yrotation Xrotation Zrotation
									JOINT f_index.01.R
									{
										OFFSET -0.053212 -0.044139 0.008249
										CHANNELS 3 Xrotation Yrotation Zrotation
										JOINT f_index.02.R
										{
											OFFSET -0.036049 -0.024835 -0.010634
											CHANNELS 3 Xrotation Yrotation Zrotation
											JOINT f_index.03.R
											{
												OFFSET -0.021371 -0.014881 -0.010866
												CHANNELS 3 Xrotation Yrotation Zrotation
												End Site
												{
													OFFSET -0.015584 -0.009883 -0.013422
												}
											}
										}
									}
									JOINT thumb.01.R
									{
										OFFSET 0.009113 -0.002381 -0.024211
										CHANNELS 6 Xposition Yposition Zposition Xrotation Yrotation Zrotation
										JOINT thumb.02.R
										{
											OFFSET -0.019694 -0.035097 -0.011088
											CHANNELS 3 Xrotation Yrotation Zrotation
											JOINT thumb.03.R
											{
												OFFSET -0.024867 -0.021762 -0.005168
												CHANNELS 3 Xrotation Yrotation Zrotation
												End Site
												{
													OFFSET -0.016120 -0.013036 -0.001565
												}
											}
										}
									}
								}
								JOINT palm.02.R
								{
									OFFSET -0.032828 -0.025095 0.012286
									CHANNELS 6 Xposition Yposition Zposition Yrotation Xrotation Zrotation
									JOINT f_middle.01.R
									{
										OFFSET -0.055721 -0.038472 0.008040
										CHANNELS 3 Xrotation Yrotation Zrotation
										JOINT f_middle.02.R
										{
											OFFSET -0.038101 -0.027593 -0.015557
											CHANNELS 3 Xrotation Yrotation Zrotation
											JOINT f_middle.03.R
											{
												OFFSET -0.021730 -0.016530 -0.017054
												CHANNELS 3 Xrotation Yrotation Zrotation
												End Site
												{
													OFFSET -0.014096 -0.010608 -0.014293
												}
											}
										}
									}
								}
								JOINT palm.03.R
								{
									OFFSET -0.039192 -0.011488 0.008390
									CHANNELS 6 Xposition Yposition Zposition Yrotation Xrotation Zrotation
									JOINT f_ring.01.R
									{
										OFFSET -0.061839 -0.031387 0.007876
										CHANNELS 3 Xrotation Yrotation Zrotation
										JOINT f_ring.02.R
										{
											OFFSET -0.033068 -0.023437 -0.019125
											CHANNELS 3 Xrotation Yrotation Zrotation
											JOINT f_ring.03.R
											{
												OFFSET -0.021371 -0.015393 -0.017822
												CHANNELS 3 Xrotation Yrotation Zrotation
												End Site
												{
													OFFSET -0.008654 -0.007321 -0.014684
												}
											}
										}
									}
								}
								JOINT palm.04.R
								{
									OFFSET -0.043421 0.002443 0.002845
									CHANNELS 6 Xposition Yposition Zposition Yrotation Xrotation Zrotation
									JOINT f_pinky.01.R
									{
										OFFSET -0.069983 -0.026169 0.003599
										CHANNELS 3 Xrotation Yrotation Zrotation
										JOINT f_pinky.02.R
										{
											OFFSET -0.018501 -0.012842 -0.016428
											CHANNELS 3 Xrotation Yrotation Zrotation
											JOINT f_pinky.03.R
											{
												OFFSET -0.013806 -0.009821 -0.014946
												CHANNELS 3 Xrotation Yrotation Zrotation
												End Site
												{
													OFFSET -0.007226 -0.006121 -0.011655
												}
											}
										}
									}
								}
							}
						}
					}
				}
			}
		}
	}
	JOINT pelvis.L
	{
		OFFSET 0.000000 0.000000 0.000000
		CHANNELS 6 Xposition Yposition Zposition Xrotation Yrotation Zrotation
		JOINT thigh.L
		{
			OFFSET 0.101675 0.001054 -0.000000
			CHANNELS 3 Xrotation Yrotation Zrotation
			JOINT shin.L
			{
				OFFSET 0.000000 -0.534800 0.041000
				CHANNELS 3 Xrotation Yrotation Zrotation
				JOINT foot.L
				{
					OFFSET 0.000000 -0.452000 -0.044800
					CHANNELS 3 Xrotation Yrotation Zrotation
					JOINT toe.L
					{
						OFFSET -0.000000 -0.068500 0.109600
						CHANNELS 3 Xrotation Yrotation Zrotation
						End Site
						{
							OFFSET -0.000000 0.000000 0.067200
						}
					}
				}
				JOINT heel.L
				{
					OFFSET 0.000000 -0.452000 -0.044800
					CHANNELS 3 Xrotation Yrotation Zrotation
					JOINT heel.02.L
					{
						OFFSET -0.038000 -0.085200 0.016200
						CHANNELS 6 Xposition Yposition Zposition Xrotation Yrotation Zrotation
						End Site
						{
							OFFSET 0.080000 -0.000000 0.000000
						}
					}
				}
			}
		}
	}
	JOINT pelvis.R
	{
		OFFSET 0.000000 0.000000 0.000000
		CHANNELS 6 Xposition Yposition Zposition Xrotation Yrotation Zrotation
		JOINT thigh.R
		{
			OFFSET -0.094325 0.001054 0.000000
			CHANNELS 3 Xrotation Yrotation Zrotation
			JOINT shin.R
			{
				OFFSET 0.000000 -0.534800 0.041000
				CHANNELS 3 Xrotation Yrotation Zrotation
				JOINT foot.R
				{
					OFFSET 0.000000 -0.452000 -0.044800
					CHANNELS 3 Xrotation Yrotation Zrotation
					JOINT toe.R
					{
						OFFSET -0.000000 -0.068500 0.109600
						CHANNELS 3 Xrotation Yrotation Zrotation
						End Site
						{
							OFFSET -0.000000 0.000000 0.067200
						}
					}
				}
				JOINT heel.R
				{
					OFFSET 0.000000 -0.452000 -0.044800
					CHANNELS 3 Xrotation Yrotation Zrotation
					JOINT heel.02.R
					{
						OFFSET 0.038000 -0.085200 0.016200
						CHANNELS 6 Xposition Yposition Zposition Xrotation Yrotation Zrotation
						End Site
						{
							OFFSET -0.080000 0.000000 -0.000000
						}
					}
				}
			}
		}
	}
}
MOTION
Frames: 4
Frame Time: 0.041667
-0.029175 0.223641 -0.036046 -29.139694 41.445632 64.667924 0.000000 0.000002 -0.000002 0.000000 -0.000000 0.000002 0.000001 -0.000001 -0.000000 0.000000 -0.000001 -0.000000 0.000924 0.155148 0.009274 -14.482380 0.025851 -27.086442 0.019937 0.078966 0.057518 24.939925 1.146289 18.021507 0.177025 -0.020465 -0.095062 -24.120306 9.149443 -48.961323 -40.312422 0.828232 -69.035973 -0.000002 -0.000001 -0.000004 0.021770 -0.038291 0.012954 -0.000001 -0.000002 -0.000004 -0.000003 -0.000000 0.000005 -0.000002 -0.000000 0.000006 0.000001 0.000004 0.000002 -0.009090 -0.002348 -0.024223 -0.000003 -0.000001 0.000001 -0.000000 -0.000001 0.000003 -0.000001 0.000002 0.000004 0.032823 -0.025104 0.012281 -0.000001 -0.000000 0.000004 0.000000 -0.000000 -0.000005 -0.000003 -0.000001 0.000001 0.000000 0.000002 0.000007 0.039230 -0.011402 0.008390 0.000001 -0.000000 0.000008 -0.000001 0.000001 -0.000000 -0.000001 0.000003 0.000001 -0.000000 0.000003 0.000004 0.043417 0.002450 0.002889 -0.000001 -0.000001 -0.000003 -0.000001 -0.000004 0.000003 -0.000000 -0.000001 -0.000003 -0.000001 -0.000007 0.000000 -0.016662 0.078956 0.057696 34.843476 -3.898964 -25.785755 -0.176972 -0.020537 -0.095144 -31.993248 -20.519055 71.037649 -19.340055 5.888061 64.676584 -0.000003 0.000002 0.000001 -0.021773 -0.038278 0.012988 0.000000 -0.000001 -0.000003 -0.000006 0.000004 -0.000004 0.000001 0.000001 -0.000004 0.000002 0.000000 0.000004 0.009114 -0.002381 -0.024211 -0.000005 0.000001 -0.000000 -0.000001 -0.000003 0.000000 0.000002 -0.000003 -0.000003 -0.032828 -0.025095 0.012286 -0.000001 -0.000002 -0.000003 0.000003 0.000000 -0.000001 0.000000 -0.000003 -0.000002 -0.000001 -0.000003 -0.000004 -0.039192 -0.011488 0.008390 0.000000 0.000000 -0.000004 -0.000001 0.000001 0.000000 0.000002 -0.000003 -0.000000 0.000001 0.000002 -0.000005 -0.043421 0.002443 0.002845 -0.000003 0.000004 0.000000 -0.000003 0.000000 -0.000004 -0.000003 -0.000002 0.000005 -0.000002 0.000003 -0.000002 0.000000 0.000000 -0.000000 -2.465650 -1.471057 14.124508 -104.365967 -1.194233 -11.801168 124.690363 -1.497960 15.300421 -0.000002 -0.000001 0.000001 0.000002 -0.000000 0.000001 0.000000 0.000000 0.000001 -0.038000 -0.085200 0.016200 0.000005 0.000000 0.000000 0.000000 0.000000 -0.000000 -2.467874 -1.471647 15.358635 -85.817147 -1.226149 -21.315501 113.474912 -4.640562 54.983627 0.000000 0.000002 -0.000001 0.000001 -0.000001 0.000000 0.000007 -0.000001 0.000001 0.038000 -0.085200 0.016200 -0.000006 0.000001 0.000002 
-0.028461 0.218613 -0.037564 -34.475544 41.210025 72.705356 -0.000002 0.000002 -0.000002 -0.000001 -0.000002 -0.000001 -0.000000 0.000002 -0.000001 0.000001 0.000002 -0.000003 0.000924 0.155148 0.009274 -15.007107 0.024083 -28.915770 0.019937 0.078966 0.057518 23.763044 0.789191 19.127096 0.177025 -0.020465 -0.095062 -22.703583 9.354335 -48.630605 -39.676378 2.468783 -72.246148 -0.000004 -0.000000 -0.000002 0.021770 -0.038291 0.012954 -0.000003 0.000000 0.000001 0.000000 0.000001 0.000003 0.000001 -0.000000 0.000008 -0.000001 0.000004 -0.000000 -0.009090 -0.002348 -0.024224 0.000003 -0.000002 0.000003 0.000001 -0.000001 0.000003 -0.000001 -0.000000 -0.000008 0.032823 -0.025104 0.012281 -0.000001 -0.000000 0.000007 -0.000002 0.000004 -0.000005 -0.000003 -0.000002 0.000003 -0.000002 -0.000000 0.000005 0.039230 -0.011402 0.008390 -0.000002 0.000001 0.000004 0.000002 -0.000005 -0.000002 -0.000001 0.000004 0.000005 -0.000001 -0.000001 0.000005 0.043417 0.002450 0.002889 -0.000001 0.000001 -0.000002 -0.000000 -0.000006 -0.000002 -0.000002 0.000006 -0.000000 -0.000002 -0.000000 0.000002 -0.016662 0.078957 0.057696 32.530333 -4.745386 -25.275771 -0.176972 -0.020537 -0.095144 -29.647245 -21.014153 74.138111 -6.509473 7.651623 61.532279 -0.000002 0.000001 -0.000003 -0.021773 -0.038278 0.012988 0.000004 -0.000003 -0.000002 0.000004 -0.000001 -0.000003 -0.000003 -0.000001 -0.000010 -0.000002 0.000005 -0.000003 0.009114 -0.002381 -0.024212 0.000002 -0.000000 -0.000004 0.000003 -0.000004 0.000004 0.000000 -0.000000 -0.000003 -0.032828 -0.025095 0.012286 0.000003 0.000003 0.000002 -0.000002 0.000002 0.000001 0.000000 -0.000003 0.000001 -0.000001 -0.000000 -0.000002 -0.039192 -0.011488 0.008390 0.000003 0.000002 0.000005 0.000004 0.000004 -0.000002 -0.000001 -0.000003 0.000003 0.000003 0.000002 -0.000004 -0.043421 0.002443 0.002845 0.000004 0.000002 -0.000001 -0.000006 0.000007 -0.000001 -0.000002 -0.000003 0.000000 0.000003 -0.000006 -0.000001 0.000000 0.000000 -0.000000 -2.547888 -1.329759 12.540116 -110.722947 -0.884757 -7.883100 127.511367 -1.132493 11.507202 -0.000002 -0.000001 0.000001 -0.000002 -0.000001 -0.000001 0.000000 0.000000 -0.000000 -0.038000 -0.085200 0.016200 -0.000001 0.000001 -0.000003 0.000000 0.000000 -0.000000 -2.544124 -1.328879 13.774393 -91.585747 -1.570444 -26.194556 120.990463 -4.183808 47.568788 0.000002 0.000002 -0.000001 0.000004 -0.000001 0.000000 0.000005 -0.000000 -0.000000 0.038000 -0.085200 0.016200 0.000002 -0.000002 -0.000001 
-0.027385 0.214694 -0.036766 -40.845207 40.927959 79.459443 -0.000001 0.000001 -0.000002 0.000005 0.000005 -0.000002 -0.000004 0.000002 -0.000002 0.000000 -0.000001 0.000001 0.000924 0.155147 0.009274 -12.266312 0.017946 -26.936864 0.019937 0.078966 0.057518 20.430153 -0.185383 19.952444 0.177024 -0.020465 -0.095062 -22.229202 9.387832 -47.809231 -39.882554 6.630058 -79.126970 -0.000001 -0.000002 -0.000002 0.021770 -0.038291 0.012954 0.000001 -0.000000 -0.000000 0.000002 -0.000000 0.000001 -0.000001 -0.000002 0.000006 0.000002 0.000004 0.000003 -0.009090 -0.002348 -0.024223 0.000002 -0.000001 -0.000001 0.000000 0.000001 0.000005 0.000000 -0.000002 0.000003 0.032823 -0.025104 0.012281 -0.000001 -0.000003 0.000002 0.000000 0.000002 -0.000007 -0.000002 0.000001 0.000005 -0.000002 -0.000006 0.000004 0.039230 -0.011402 0.008390 -0.000001 -0.000001 0.000003 -0.000001 0.000002 0.000001 0.000000 0.000003 0.000001 0.000002 -0.000001 0.000005 0.043417 0.002450 0.002889 -0.000000 -0.000002 -0.000003 0.000001 -0.000003 0.000001 -0.000001 0.000006 -0.000003 0.000000 -0.000002 -0.000002 -0.016662 0.078957 0.057696 28.411193 -4.866199 -25.878431 -0.176972 -0.020537 -0.095144 -25.250864 -20.402202 78.117140 -3.988396 7.822102 61.381667 0.000000 0.000003 0.000002 -0.021773 -0.038278 0.012988 0.000001 -0.000001 -0.000005 0.000001 0.000001 0.000001 -0.000002 -0.000001 -0.000006 0.000002 0.000002 0.000005 0.009114 -0.002381 -0.024212 0.000002 -0.000003 -0.000001 0.000001 -0.000002 0.000000 0.000003 0.000000 -0.000003 -0.032828 -0.025095 0.012286 0.000001 -0.000000 -0.000003 0.000000 -0.000000 0.000001 0.000002 -0.000002 -0.000004 -0.000001 -0.000004 -0.000001 -0.039192 -0.011488 0.008390 0.000002 -0.000000 -0.000002 0.000000 0.000008 -0.000003 0.000001 0.000002 -0.000000 0.000000 -0.000002 0.000004 -0.043421 0.002443 0.002845 -0.000001 0.000001 -0.000001 -0.000001 0.000002 -0.000001 0.000000 -0.000000 0.000003 -0.000002 0.000000 -0.000004 0.000000 0.000000 -0.000000 -2.565871 -1.536670 14.499066 -112.564892 -1.099097 -10.747536 132.537785 -1.363349 13.896063 -0.000002 0.000002 -0.000001 0.000004 0.000000 0.000000 -0.000002 0.000000 -0.000000 -0.038000 -0.085200 0.016200 -0.000000 0.000000 -0.000001 0.000000 0.000000 0.000000 -2.569827 -1.537735 15.733141 -96.412894 -1.376673 -23.373140 115.824326 -3.991515 44.752875 0.000003 0.000001 0.000000 0.000002 0.000001 -0.000001 0.000002 0.000003 0.000002 0.038000 -0.085200 0.016200 0.000001 0.000001 -0.000002 
-0.026913 0.213514 -0.034561 -43.616140 39.421789 82.473018 -0.000002 -0.000000 0.000002 -0.000003 -0.000002 0.000001 -0.000002 -0.000002 -0.000000 -0.000001 0.000001 0.000001 0.000924 0.155148 0.009274 -10.507064 0.015791 -24.803086 0.019937 0.078966 0.057518 18.658383 -0.738725 19.631108 0.177025 -0.020465 -0.095062 -23.136634 10.604859 -51.680473 -36.571100 4.730068 -79.600343 -0.000002 -0.000001 0.000001 0.021770 -0.038291 0.012954 -0.000000 -0.000001 0.000001 -0.000003 -0.000000 -0.000002 -0.000002 -0.000001 0.000005 0.000002 0.000001 -0.000006 -0.009090 -0.002348 -0.024224 -0.000003 0.000001 -0.000001 0.000001 0.000000 0.000003 -0.000001 0.000001 -0.000001 0.032823 -0.025104 0.012281 -0.000000 -0.000000 0.000004 -0.000000 0.000000 0.000002 -0.000004 -0.000003 0.000001 -0.000000 0.000001 0.000001 0.039230 -0.011402 0.008390 0.000001 -0.000001 0.000006 0.000002 0.000003 -0.000002 -0.000001 0.000006 0.000001 -0.000000 -0.000003 -0.000002 0.043417 0.002450 0.002889 -0.000002 -0.000000 -0.000000 -0.000002 -0.000004 0.000003 0.000001 0.000004 -0.000000 -0.000002 0.000001 -0.000002 -0.016662 0.078957 0.057696 27.119744 -4.591889 -26.267219 -0.176972 -0.020537 -0.095144 -23.113611 -18.872149 76.137942 -9.107435 7.763029 66.124707 0.000001 0.000002 0.000002 -0.021773 -0.038278 0.012988 -0.000002 -0.000001 0.000002 -0.000002 0.000003 -0.000001 -0.000001 0.000003 -0.000006 0.000001 -0.000002 0.000005 0.009113 -0.002381 -0.024212 0.000002 -0.000002 0.000002 -0.000000 -0.000001 0.000000 0.000000 0.000000 -0.000006 -0.032828 -0.025095 0.012286 0.000001 -0.000000 -0.000003 0.000002 0.000002 -0.000001 0.000001 -0.000003 0.000001 -0.000000 0.000006 -0.000007 -0.039192 -0.011488 0.008390 -0.000004 0.000004 -0.000004 0.000003 0.000005 0.000002 0.000003 -0.000003 -0.000000 -0.000000 0.000000 -0.000003 -0.043421 0.002443 0.002844 -0.000003 0.000002 -0.000003 -0.000003 0.000006 0.000001 0.000001 -0.000001 -0.000000 0.000005 0.000002 0.000004 0.000000 0.000000 -0.000000 -2.535727 -1.578272 14.977785 -108.220229 -1.170989 -11.555580 131.644711 -1.460001 14.903550 -0.000005 -0.000001 -0.000001 -0.000002 -0.000000 0.000000 -0.000002 -0.000001 -0.000000 -0.038000 -0.085200 0.016200 -0.000006 0.000000 -0.000000 0.000000 0.000000 0.000000 -2.541460 -1.579868 16.211807 -97.632274 -0.867817 -16.295863 112.248538 -4.022397 45.195478 0.000000 0.000000 0.000003 0.000000 -0.000000 0.000002 0.000007 -0.000003 0.000001 0.038000 -0.085200 0.016200 -0.000002 -0.000002 -0.000004 
